<?xml version="1.0" encoding="iso-8859-1"?>
<!-- Uploaded to: SVG Repo, www.svgrepo.com, Generator: SVG Repo Mixer Tools -->
<svg fill="#000000" height="800px" width="800px" version="1.1" id="Layer_1" xmlns="http://www.w3.org/2000/svg" xmlns:xlink="http://www.w3.org/1999/xlink" 
	 viewBox="0 0 512 512" xml:space="preserve">
<g>
	<g>
		<path d="M204.493,325.074v79.303c0,40.516-32.961,73.489-73.489,73.489c-9.421,0-17.067,7.646-17.067,17.067
			S121.583,512,131.004,512c59.346,0,107.622-48.276,107.622-107.622v-71.407C226.987,331.651,215.563,329,204.493,325.074z"/>
	</g>
</g>
<g>
	<g>
		<path d="M380.996,477.867c-40.528,0-73.489-32.973-73.489-73.489v-79.303c-11.071,3.925-22.494,6.576-34.133,7.896v71.407
			C273.374,463.724,321.65,512,380.996,512c9.421,0,17.067-7.646,17.067-17.067C398.063,485.513,390.417,477.867,380.996,477.867z"
			/>
	</g>
</g>
<g>
	<g>
		<path d="M144.031,287.664v92.103c0,11.253-9.148,20.412-20.4,20.412s-20.4-9.159-20.4-20.412V316.53
			c0-9.432-7.646-17.067-17.067-17.067H42.94c-9.421,0-17.067,7.634-17.067,17.067c0,9.421,7.646,17.067,17.067,17.067h26.157
			v46.171c0,30.071,24.462,54.545,54.534,54.545s54.534-24.474,54.534-54.545v-66.765
			C166.127,306.153,154.681,297.677,144.031,287.664z"/>
	</g>
</g>
<g>
	<g>
		<path d="M469.06,297.779h-43.224c-9.421,0-17.067,7.634-17.067,17.067v63.238c0,11.253-9.148,20.4-20.4,20.4
			s-20.4-9.148-20.4-20.4v-90.419c-10.65,10.012-22.096,18.489-34.133,25.338v65.081c0,30.071,24.462,54.534,54.534,54.534
			c30.071,0,54.534-24.462,54.534-54.534v-46.171h26.158c9.421,0,17.067-7.646,17.067-17.067
			C486.127,305.414,478.481,297.779,469.06,297.779z"/>
	</g>
</g>
<g>
	<g>
		<path d="M256,0c-78.333,0-142.06,63.728-142.06,142.06c0,77.802,62.745,157.764,142.06,157.764
			c79.489,0,142.06-80.129,142.06-157.764C398.06,63.728,334.333,0,256,0z M209.331,249.276c-12.469,0-22.577-10.108-22.577-22.577
			c0-12.469,10.108-22.577,22.577-22.577s22.577,10.108,22.577,22.577C231.909,239.168,221.801,249.276,209.331,249.276z
			 M302.669,249.276c-12.469,0-22.577-10.108-22.577-22.577c0-12.469,10.108-22.577,22.577-22.577s22.577,10.108,22.577,22.577
			C325.246,239.168,315.138,249.276,302.669,249.276z"/>
	</g>
</g>
</svg>